<svg xmlns="http://www.w3.org/2000/svg" xmlns:xlink="http://www.w3.org/1999/xlink" width="650" height="130.26"><rect width="650" height="130.26" rx="0" ry="0" class="a"/><svg height="130.26" viewBox="0 0 65 13.026" width="650" xmlns="http://www.w3.org/2000/svg" xmlns:xlink="http://www.w3.org/1999/xlink"><style>@keyframes h{0%{transform:translateX(0)}1.4%{transform:translateX(-65px)}8.3%{transform:translateX(-130px)}9.5%{transform:translateX(-195px)}14.9%{transform:translateX(-260px)}16.3%{transform:translateX(-325px)}17.5%{transform:translateX(-390px)}20%{transform:translateX(-455px)}22.5%{transform:translateX(-520px)}34%{transform:translateX(-585px)}41.1%{transform:translateX(-650px)}69.4%{transform:translateX(-715px)}83.2%{transform:translateX(-780px)}83.5%{transform:translateX(-845px)}93.4%{transform:translateX(-910px)}95.5%{transform:translateX(-975px)}96.4%{transform:translateX(-1040px)}97.9%{transform:translateX(-1105px)}to{transform:translateX(-1235px)}}.a{fill:#282d35}.c,.d,.e{fill:#b9c0cb;white-space:pre}.d,.e{fill:#a8cc8c;font-weight:700}.e{fill:#71bef2}</style><g font-family="Monaco,Consolas,Menlo,'Bitstream Vera Sans Mono','Powerline Symbols',monospace" font-size="1.67"><defs><symbol id="1"><text y="1.67" class="c">(base)</text><text x="7.014" y="1.67" class="d">riteshp@beast</text><text x="20.04" y="1.67" class="c">:</text><text x="21.042" y="1.67" class="e">~</text><text x="22.044" y="1.67" class="c">$</text></symbol><symbol id="2"><text y="1.67" class="c">(base)</text><text x="7.014" y="1.67" class="d">riteshp@beast</text><text x="20.04" y="1.67" class="c">:</text><text x="21.042" y="1.67" class="e">~</text><text x="22.044" y="1.67" class="c">$</text><text x="24.048" y="1.67" class="c">cpotp</text></symbol><symbol id="3"><text y="1.67" class="c">Opening</text><text x="8.016" y="1.67" class="c">the</text><text x="12.024" y="1.67" class="c">browser</text></symbol><symbol id="4"><text y="1.67" class="c">Opening</text><text x="8.016" y="1.67" class="c">https://messages.google.com/web</text></symbol><symbol id="5"><text y="1.67" class="c">Waiting</text><text x="8.016" y="1.67" class="c">for</text><text x="12.024" y="1.67" class="c">the</text><text x="16.032" y="1.67" class="c">conversations</text><text x="30.06" y="1.67" class="c">to</text><text x="33.066" y="1.67" class="c">load</text></symbol><symbol id="6"><text y="1.67" class="c">Waiting</text><text x="8.016" y="1.67" class="c">for</text><text x="12.024" y="1.67" class="c">the</text><text x="16.032" y="1.67" class="c">messages</text><text x="25.05" y="1.67" class="c">to</text><text x="28.056" y="1.67" class="c">load</text><text x="33.066" y="1.67" class="c">in</text><text x="36.072" y="1.67" class="c">the</text><text x="40.08" y="1.67" class="c">latest</text><text x="47.094" y="1.67" class="c">conversation</text></symbol><symbol id="7"><text y="1.67" class="c">OTP</text><text x="4.008" y="1.67" class="c">has</text><text x="8.016" y="1.67" class="c">been</text><text x="13.026" y="1.67" class="c">copied</text><text x="20.04" y="1.67" class="c">to</text><text x="23.046" y="1.67" class="c">the</text><text x="27.054" y="1.67" class="c">clipboard:</text><text x="38.076" y="1.67" class="c">872154</text></symbol><symbol id="8"><text y="1.67" class="c">(base)</text><text x="7.014" y="1.67" class="d">riteshp@beast</text><text x="20.04" y="1.67" class="c">:</text><text x="21.042" y="1.67" class="e">~</text><text x="22.044" y="1.67" class="c">$</text><text x="24.048" y="1.67" class="c">exit</text></symbol><symbol id="a"><path fill="transparent" d="M0 0h65v7H0z"/></symbol><symbol id="b"><path fill="#6f7683" d="M0 0h1.102v2.171H0z"/></symbol></defs><path class="a" d="M0 0h65v13.026H0z"/><g style="animation-duration:9.723384s;animation-iteration-count:infinite;animation-name:h;animation-timing-function:steps(1,end)"><svg width="1300"><svg><use xlink:href="#a"/><use xlink:href="#b" x="-.004"/></svg><svg x="65"><use xlink:href="#a"/><use xlink:href="#b" x="23.996"/><use xlink:href="#1"/></svg><svg x="130"><use xlink:href="#a"/><use xlink:href="#b" x="24.996"/><text y="1.67" class="c">(base)</text><text x="7.014" y="1.67" class="d">riteshp@beast</text><text x="20.04" y="1.67" class="c">:</text><text x="21.042" y="1.67" class="e">~</text><text x="22.044" y="1.67" class="c">$</text><text x="24.048" y="1.67" class="c">c</text></svg><svg x="195"><use xlink:href="#a"/><use xlink:href="#b" x="25.996"/><text y="1.67" class="c">(base)</text><text x="7.014" y="1.67" class="d">riteshp@beast</text><text x="20.04" y="1.67" class="c">:</text><text x="21.042" y="1.67" class="e">~</text><text x="22.044" y="1.67" class="c">$</text><text x="24.048" y="1.67" class="c">cp</text></svg><svg x="260"><use xlink:href="#a"/><use xlink:href="#b" x="26.996"/><text y="1.67" class="c">(base)</text><text x="7.014" y="1.67" class="d">riteshp@beast</text><text x="20.04" y="1.67" class="c">:</text><text x="21.042" y="1.67" class="e">~</text><text x="22.044" y="1.67" class="c">$</text><text x="24.048" y="1.67" class="c">cpo</text></svg><svg x="325"><use xlink:href="#a"/><use xlink:href="#b" x="27.996"/><text y="1.67" class="c">(base)</text><text x="7.014" y="1.67" class="d">riteshp@beast</text><text x="20.04" y="1.67" class="c">:</text><text x="21.042" y="1.67" class="e">~</text><text x="22.044" y="1.67" class="c">$</text><text x="24.048" y="1.67" class="c">cpot</text></svg><svg x="390"><use xlink:href="#a"/><use xlink:href="#b" x="28.996"/><use xlink:href="#2"/></svg><svg x="455"><use xlink:href="#a"/><use xlink:href="#b" x="-.004" y="2.146"/><use xlink:href="#2"/></svg><svg x="520"><use xlink:href="#a"/><use xlink:href="#b" x="-.004" y="4.317"/><use xlink:href="#2"/><use xlink:href="#3" y="2.171"/></svg><svg x="585"><use xlink:href="#a"/><use xlink:href="#b" x="-.004" y="6.488"/><use xlink:href="#2"/><use xlink:href="#3" y="2.171"/><use xlink:href="#4" y="4.342"/></svg><svg x="650"><use xlink:href="#a"/><use xlink:href="#b" x="-.004" y="8.659"/><use xlink:href="#2"/><use xlink:href="#3" y="2.171"/><use xlink:href="#4" y="4.342"/><use xlink:href="#5" y="6.513"/></svg><svg x="715"><use xlink:href="#a"/><use xlink:href="#b" x="-.004" y="10.83"/><use xlink:href="#2"/><use xlink:href="#3" y="2.171"/><use xlink:href="#4" y="4.342"/><use xlink:href="#5" y="6.513"/><use xlink:href="#6" y="8.684"/></svg><svg x="780"><use xlink:href="#a"/><use xlink:href="#b" x="-.004" y="13.001"/><use xlink:href="#2"/><use xlink:href="#3" y="2.171"/><use xlink:href="#4" y="4.342"/><use xlink:href="#5" y="6.513"/><use xlink:href="#6" y="8.684"/><use xlink:href="#7" y="10.855"/></svg><svg x="845"><use xlink:href="#a"/><use xlink:href="#b" x="23.996" y="13.001"/><use xlink:href="#2"/><use xlink:href="#3" y="2.171"/><use xlink:href="#4" y="4.342"/><use xlink:href="#5" y="6.513"/><use xlink:href="#6" y="8.684"/><use xlink:href="#7" y="10.855"/><use xlink:href="#1" y="13.026"/></svg><svg x="910"><use xlink:href="#a"/><use xlink:href="#b" x="24.996" y="13.001"/><use xlink:href="#2"/><use xlink:href="#3" y="2.171"/><use xlink:href="#4" y="4.342"/><use xlink:href="#5" y="6.513"/><use xlink:href="#6" y="8.684"/><use xlink:href="#7" y="10.855"/><text y="14.696" class="c">(base)</text><text x="7.014" y="14.696" class="d">riteshp@beast</text><text x="20.04" y="14.696" class="c">:</text><text x="21.042" y="14.696" class="e">~</text><text x="22.044" y="14.696" class="c">$</text><text x="24.048" y="14.696" class="c">e</text></svg><svg x="975"><use xlink:href="#a"/><use xlink:href="#b" x="25.996" y="13.001"/><use xlink:href="#2"/><use xlink:href="#3" y="2.171"/><use xlink:href="#4" y="4.342"/><use xlink:href="#5" y="6.513"/><use xlink:href="#6" y="8.684"/><use xlink:href="#7" y="10.855"/><text y="14.696" class="c">(base)</text><text x="7.014" y="14.696" class="d">riteshp@beast</text><text x="20.04" y="14.696" class="c">:</text><text x="21.042" y="14.696" class="e">~</text><text x="22.044" y="14.696" class="c">$</text><text x="24.048" y="14.696" class="c">ex</text></svg><svg x="1040"><use xlink:href="#a"/><use xlink:href="#b" x="26.996" y="13.001"/><use xlink:href="#2"/><use xlink:href="#3" y="2.171"/><use xlink:href="#4" y="4.342"/><use xlink:href="#5" y="6.513"/><use xlink:href="#6" y="8.684"/><use xlink:href="#7" y="10.855"/><text y="14.696" class="c">(base)</text><text x="7.014" y="14.696" class="d">riteshp@beast</text><text x="20.04" y="14.696" class="c">:</text><text x="21.042" y="14.696" class="e">~</text><text x="22.044" y="14.696" class="c">$</text><text x="24.048" y="14.696" class="c">exi</text></svg><svg x="1105"><use xlink:href="#a"/><use xlink:href="#b" x="27.996" y="13.001"/><use xlink:href="#2"/><use xlink:href="#3" y="2.171"/><use xlink:href="#4" y="4.342"/><use xlink:href="#5" y="6.513"/><use xlink:href="#6" y="8.684"/><use xlink:href="#7" y="10.855"/><use xlink:href="#8" y="13.026"/></svg><svg x="1170"><use xlink:href="#a"/><use xlink:href="#b" x="-.004" y="13.001"/><use xlink:href="#3"/><use xlink:href="#4" y="2.171"/><use xlink:href="#5" y="4.342"/><use xlink:href="#6" y="6.513"/><use xlink:href="#7" y="8.684"/><use xlink:href="#8" y="10.855"/></svg><svg x="1235"><use xlink:href="#a"/><use xlink:href="#b" x="-.004" y="13.001"/><use xlink:href="#4"/><use xlink:href="#5" y="2.171"/><use xlink:href="#6" y="4.342"/><use xlink:href="#7" y="6.513"/><use xlink:href="#8" y="8.684"/><text y="12.525" class="c">exit</text></svg></svg></g></g></svg></svg>